<svg xmlns="http://www.w3.org/2000/svg" width="720" height="520" viewBox="0 0 720 520" role="img" aria-label="Web browser and globe teaser sticker">
  <defs>
    <filter id="shadow" x="-20%" y="-20%" width="150%" height="160%">
      <feDropShadow dx="10" dy="14" stdDeviation="0" flood-color="#101010" flood-opacity="1"/>
    </filter>
  </defs>
  <g filter="url(#shadow)">
    <rect x="45" y="52" width="630" height="410" rx="38" fill="#fff" stroke="#111" stroke-width="12"/>
    <path d="M45 132h630" stroke="#111" stroke-width="12"/>
    <circle cx="91" cy="93" r="13" fill="#ff4d4d" stroke="#111" stroke-width="5"/>
    <circle cx="132" cy="93" r="13" fill="#ffd83d" stroke="#111" stroke-width="5"/>
    <circle cx="173" cy="93" r="13" fill="#22db88" stroke="#111" stroke-width="5"/>
    <rect x="222" y="72" width="388" height="43" rx="21" fill="#eef2f7" stroke="#111" stroke-width="5"/>
    <text x="416" y="102" text-anchor="middle" font-family="Arial, sans-serif" font-size="25" font-weight="700" fill="#111">www.????.com</text>
    <circle cx="360" cy="286" r="112" fill="#2d80f7" stroke="#111" stroke-width="10"/>
    <path d="M252 286h216M360 174c-37 31-57 68-57 112s20 81 57 112M360 174c37 31 57 68 57 112s-20 81-57 112M278 214c50 29 114 29 164 0M278 358c50-29 114-29 164 0" fill="none" stroke="#fff" stroke-width="10" stroke-linecap="round"/>
    <path d="M514 330l76 25-33 19 25 43-28 17-25-44-34 20z" fill="#ffe900" stroke="#111" stroke-width="9" stroke-linejoin="round"/>
    <rect x="96" y="188" width="118" height="55" rx="27" fill="#ffe900" stroke="#111" stroke-width="7" transform="rotate(-8 155 215)"/>
    <text x="155" y="225" text-anchor="middle" font-family="Arial, sans-serif" font-size="31" font-weight="900" fill="#111" transform="rotate(-8 155 215)">WEB</text>
    <path d="M183 338c-28-22-67-17-88 12-18 25-13 61 12 80 24 18 58 16 79-5l44 5-19-41c8-19-2-38-28-51z" fill="#22db88" stroke="#111" stroke-width="8"/>
    <path d="M120 386l24 19 42-49" fill="none" stroke="#111" stroke-width="9" stroke-linecap="round" stroke-linejoin="round"/>
  </g>
</svg>
